<svg width="128" height="128" viewBox="0 0 128 128" fill="none" xmlns="http://www.w3.org/2000/svg">
  <rect width="128" height="128" rx="38" fill="#110C08"/>
  <path d="M26 74.5C39.8 79.2 55.8 80.5 74.3 77.8C88.8 75.7 100.5 71.5 108 66.9C103.1 79.8 91.9 88.9 76.5 92.1C52.6 97 34.1 89.7 23 79.2C20.8 77.1 23.2 73.6 26 74.5Z" fill="#FFF8EF"/>
  <path d="M36 58.5C48.6 48.6 63.6 38 79.2 38C89.8 38 96.4 43.4 100.2 50.8C88.4 59.3 74.2 64.4 58.1 66.2C48 67.3 37 66.1 26.5 62.2C29.5 61.1 32.6 59.9 36 58.5Z" fill="#D97706"/>
  <path d="M39 61.2C51.1 52.6 65 43.7 78.6 43.7C84.7 43.7 89.8 46 93.1 50.3C83.7 56 71.3 60.2 57.9 61.8C51 62.7 44.6 62.3 39 61.2Z" fill="#FFF8EF" opacity="0.92"/>
  <circle cx="92" cy="34" r="7" fill="#FFF8EF"/>
  <path d="M86 32L101 47" stroke="#FFF8EF" stroke-width="6" stroke-linecap="round"/>
</svg>
